<?xml version="1.0" encoding="UTF-8"?>
<svg viewBox="0 0 800 600" xmlns="http://www.w3.org/2000/svg">
  <!-- Background -->
  <rect width="800" height="600" rx="10" fill="#ffffff" stroke="#e5e7eb" stroke-width="2"/>

  <!-- Header -->
  <rect x="0" y="0" width="800" height="60" rx="10" fill="#f3f4f6"/>
  <text x="30" y="38" font-family="Arial" font-size="20" font-weight="bold" fill="#3b82f6">Analytics Dashboard</text>
  <rect x="700" y="20" width="70" height="20" rx="4" fill="#3b82f6"/>
  <text x="718" y="34" font-family="Arial" font-size="12" fill="#ffffff">Export</text>

  <!-- Filters -->
  <rect x="20" y="80" width="760" height="50" rx="8" fill="#f9fafb" stroke="#e5e7eb" stroke-width="1"/>
  <text x="40" y="110" font-family="Arial" font-size="14" fill="#374151">Time Range:</text>
  <rect x="140" y="95" width="100" height="24" rx="4" fill="#3b82f6"/>
  <text x="160" y="112" font-family="Arial" font-size="12" fill="#ffffff">Last 30 Days</text>
  <rect x="250" y="95" width="80" height="24" rx="4" fill="#f3f4f6" stroke="#d1d5db" stroke-width="1"/>
  <text x="265" y="112" font-family="Arial" font-size="12" fill="#374151">7 Days</text>
  <rect x="340" y="95" width="90" height="24" rx="4" fill="#f3f4f6" stroke="#d1d5db" stroke-width="1"/>
  <text x="355" y="112" font-family="Arial" font-size="12" fill="#374151">90 Days</text>

  <!-- AI Agent Stats -->
  <rect x="20" y="150" width="760" height="100" rx="8" fill="#eef2ff" stroke="#c7d2fe" stroke-width="1"/>
  <text x="40" y="180" font-family="Arial" font-size="16" font-weight="bold" fill="#4338ca">AI Agent Interactions</text>
  <text x="40" y="210" font-family="Arial" font-size="28" font-weight="bold" fill="#1e3a8a">386</text>
  <text x="110" y="210" font-family="Arial" font-size="14" fill="#4338ca">12.9 per day</text>

  <rect x="280" y="170" width="1" height="60" fill="#c7d2fe"/>

  <text x="310" y="180" font-family="Arial" font-size="16" font-weight="bold" fill="#4338ca">Top AI Agents</text>
  <circle cx="330" cy="200" r="8" fill="#3b82f6"/>
  <text x="345" y="204" font-family="Arial" font-size="12" fill="#1e3a8a">Claude (45%)</text>

  <circle cx="330" cy="225" r="8" fill="#10b981"/>
  <text x="345" y="229" font-family="Arial" font-size="12" fill="#1e3a8a">ChatGPT (32%)</text>

  <rect x="500" y="170" width="1" height="60" fill="#c7d2fe"/>

  <text x="530" y="180" font-family="Arial" font-size="16" font-weight="bold" fill="#4338ca">Conversion Rate</text>
  <text x="530" y="210" font-family="Arial" font-size="28" font-weight="bold" fill="#1e3a8a">6.4%</text>
  <text x="600" y="210" font-family="Arial" font-size="14" fill="#059669">↑ 1.2%</text>

  <!-- Main Charts -->
  <rect x="20" y="270" width="365" height="320" rx="8" fill="#ffffff" stroke="#e5e7eb" stroke-width="1"/>
  <text x="40" y="300" font-family="Arial" font-size="16" font-weight="bold" fill="#111827">Daily Agent Interactions</text>

  <!-- Line Chart -->
  <line x1="40" y1="560" x2="345" y2="560" stroke="#e5e7eb" stroke-width="1"/>
  <line x1="40" y1="560" x2="40" y2="320" stroke="#e5e7eb" stroke-width="1"/>

  <!-- Chart Grid Lines -->
  <line x1="40" y1="480" x2="345" y2="480" stroke="#e5e7eb" stroke-width="1" stroke-dasharray="4"/>
  <line x1="40" y1="400" x2="345" y2="400" stroke="#e5e7eb" stroke-width="1" stroke-dasharray="4"/>
  <line x1="40" y1="320" x2="345" y2="320" stroke="#e5e7eb" stroke-width="1" stroke-dasharray="4"/>

  <!-- Chart X-Axis Labels -->
  <text x="40" y="575" font-family="Arial" font-size="10" fill="#6b7280">Apr 1</text>
  <text x="120" y="575" font-family="Arial" font-size="10" fill="#6b7280">Apr 8</text>
  <text x="200" y="575" font-family="Arial" font-size="10" fill="#6b7280">Apr 15</text>
  <text x="280" y="575" font-family="Arial" font-size="10" fill="#6b7280">Apr 22</text>

  <!-- Chart Y-Axis Labels -->
  <text x="25" y="560" font-family="Arial" font-size="10" fill="#6b7280">0</text>
  <text x="25" y="480" font-family="Arial" font-size="10" fill="#6b7280">10</text>
  <text x="25" y="400" font-family="Arial" font-size="10" fill="#6b7280">20</text>
  <text x="25" y="320" font-family="Arial" font-size="10" fill="#6b7280">30</text>

  <!-- Chart Data -->
  <polyline points="40,520 60,500 80,530 100,490 120,480 140,450 160,470 180,440 200,420 220,450 240,390 260,410 280,380 300,400 320,370 340,350" stroke="#3b82f6" stroke-width="2" fill="none"/>
  <circle cx="40" cy="520" r="3" fill="#3b82f6"/>
  <circle cx="60" cy="500" r="3" fill="#3b82f6"/>
  <circle cx="80" cy="530" r="3" fill="#3b82f6"/>
  <circle cx="100" cy="490" r="3" fill="#3b82f6"/>
  <circle cx="120" cy="480" r="3" fill="#3b82f6"/>
  <circle cx="140" cy="450" r="3" fill="#3b82f6"/>
  <circle cx="160" cy="470" r="3" fill="#3b82f6"/>
  <circle cx="180" cy="440" r="3" fill="#3b82f6"/>
  <circle cx="200" cy="420" r="3" fill="#3b82f6"/>
  <circle cx="220" cy="450" r="3" fill="#3b82f6"/>
  <circle cx="240" cy="390" r="3" fill="#3b82f6"/>
  <circle cx="260" cy="410" r="3" fill="#3b82f6"/>
  <circle cx="280" cy="380" r="3" fill="#3b82f6"/>
  <circle cx="300" cy="400" r="3" fill="#3b82f6"/>
  <circle cx="320" cy="370" r="3" fill="#3b82f6"/>
  <circle cx="340" cy="350" r="3" fill="#3b82f6"/>

  <!-- Pie Chart -->
  <rect x="415" y="270" width="365" height="320" rx="8" fill="#ffffff" stroke="#e5e7eb" stroke-width="1"/>
  <text x="435" y="300" font-family="Arial" font-size="16" font-weight="bold" fill="#111827">Product Discovery</text>

  <!-- Pie Chart -->
  <circle cx="600" cy="430" r="100" fill="none" stroke="#e5e7eb" stroke-width="1"/>

  <!-- Pie Segments -->
  <path d="M600,430 L600,330 A100,100 0 0,1 685,395 Z" fill="#3b82f6"/>
  <path d="M600,430 L685,395 A100,100 0 0,1 650,525 Z" fill="#10b981"/>
  <path d="M600,430 L650,525 A100,100 0 0,1 505,490 Z" fill="#f59e0b"/>
  <path d="M600,430 L505,490 A100,100 0 0,1 530,345 Z" fill="#ef4444"/>
  <path d="M600,430 L530,345 A100,100 0 0,1 600,330 Z" fill="#8b5cf6"/>

  <!-- Legend -->
  <rect x="435" y="380" width="10" height="10" fill="#3b82f6"/>
  <text x="450" y="390" font-family="Arial" font-size="12" fill="#111827">Discovered (40%)</text>

  <rect x="435" y="405" width="10" height="10" fill="#10b981"/>
  <text x="450" y="415" font-family="Arial" font-size="12" fill="#111827">Viewed (30%)</text>

  <rect x="435" y="430" width="10" height="10" fill="#f59e0b"/>
  <text x="450" y="440" font-family="Arial" font-size="12" fill="#111827">Added to Cart (15%)</text>

  <rect x="435" y="455" width="10" height="10" fill="#ef4444"/>
  <text x="450" y="465" font-family="Arial" font-size="12" fill="#111827">Purchased (10%)</text>

  <rect x="435" y="480" width="10" height="10" fill="#8b5cf6"/>
  <text x="450" y="490" font-family="Arial" font-size="12" fill="#111827">Other (5%)</text>
</svg>